<mxfile host="drawio-plugin" modified="2024-02-04T21:39:19.443Z" agent="5.0 (X11; Linux x86_64) AppleWebKit/537.36 (KHTML, like Gecko) Chrome/111.0.0.0 Safari/537.36" etag="upMhB0hggVqZSmUHP6Cv" version="20.5.3" type="embed"><diagram id="J1F_g43zN-8IpFpNv9SI" name="Page-1"><mxGraphModel dx="906" dy="834" grid="1" gridSize="10" guides="1" tooltips="1" connect="1" arrows="1" fold="1" page="1" pageScale="1" pageWidth="827" pageHeight="1169" math="0" shadow="0"><root><mxCell id="0"/><mxCell id="1" parent="0"/><mxCell id="2" value="" style="ellipse;html=1;shape=startState;fillColor=#000000;strokeColor=#E6E6E6;" parent="1" vertex="1"><mxGeometry x="377" y="40" width="30" height="30" as="geometry"/></mxCell><mxCell id="3" value="" style="edgeStyle=orthogonalEdgeStyle;html=1;verticalAlign=bottom;endArrow=classic;endSize=8;strokeColor=#000000;rounded=0;entryX=0.5;entryY=0;entryDx=0;entryDy=0;endFill=1;" parent="1" target="4" edge="1"><mxGeometry relative="1" as="geometry"><mxPoint x="357" y="100" as="targetPoint"/><mxPoint x="392" y="70" as="sourcePoint"/></mxGeometry></mxCell><mxCell id="4" value="Ingredient" style="swimlane;fontStyle=0;childLayout=stackLayout;horizontal=1;startSize=26;fillColor=#d5e8d4;horizontalStack=0;resizeParent=1;resizeParentMax=0;resizeLast=0;collapsible=1;marginBottom=0;strokeColor=#82b366;" parent="1" vertex="1"><mxGeometry x="297" y="100" width="190" height="52" as="geometry"/></mxCell><mxCell id="5" value="* : Psr\..\MessageInterface" style="text;strokeColor=none;fillColor=none;align=left;verticalAlign=top;spacingLeft=4;spacingRight=4;overflow=hidden;rotatable=0;points=[[0,0.5],[1,0.5]];portConstraint=eastwest;" parent="4" vertex="1"><mxGeometry y="26" width="190" height="26" as="geometry"/></mxCell><mxCell id="14" value="" style="edgeStyle=orthogonalEdgeStyle;rounded=0;orthogonalLoop=1;jettySize=auto;html=1;strokeColor=#000000;" parent="1" source="10" target="13" edge="1"><mxGeometry relative="1" as="geometry"/></mxCell><mxCell id="10" value="&lt;div style=&quot;color: rgb(8, 8, 8);&quot;&gt;&lt;pre style=&quot;font-family: &amp;quot;JetBrains Mono&amp;quot;, monospace;&quot;&gt;&lt;span style=&quot;color: rgb(0, 0, 0);&quot;&gt;Ping&lt;/span&gt;&lt;/pre&gt;&lt;/div&gt;" style="rounded=1;whiteSpace=wrap;html=1;absoluteArcSize=1;arcSize=14;strokeWidth=2;fillColor=#dae8fc;strokeColor=#6c8ebf;" parent="1" vertex="1"><mxGeometry x="297" y="190" width="190" height="50" as="geometry"/></mxCell><mxCell id="11" value="" style="edgeStyle=orthogonalEdgeStyle;html=1;verticalAlign=bottom;endArrow=classic;endSize=8;strokeColor=#000000;rounded=0;exitX=0.502;exitY=1.083;exitDx=0;exitDy=0;exitPerimeter=0;entryX=0.5;entryY=0;entryDx=0;entryDy=0;endFill=1;" parent="1" source="5" target="10" edge="1"><mxGeometry relative="1" as="geometry"><mxPoint x="382" y="270" as="targetPoint"/><mxPoint x="392" y="80" as="sourcePoint"/><Array as="points"><mxPoint x="392" y="170"/><mxPoint x="392" y="170"/></Array></mxGeometry></mxCell><mxCell id="13" value="&lt;div style=&quot;color: rgb(8, 8, 8);&quot;&gt;&lt;pre style=&quot;font-family: &amp;quot;JetBrains Mono&amp;quot;, monospace;&quot;&gt;&lt;span style=&quot;color: rgb(0, 0, 0);&quot;&gt;SetTimeLimit&lt;/span&gt;&lt;/pre&gt;&lt;/div&gt;" style="rounded=1;whiteSpace=wrap;html=1;absoluteArcSize=1;arcSize=14;strokeWidth=2;fillColor=#dae8fc;strokeColor=#6c8ebf;" parent="1" vertex="1"><mxGeometry x="297" y="280" width="190" height="50" as="geometry"/></mxCell><mxCell id="15" value="" style="edgeStyle=orthogonalEdgeStyle;rounded=0;orthogonalLoop=1;jettySize=auto;html=1;strokeColor=#000000;exitX=0.5;exitY=1;exitDx=0;exitDy=0;" parent="1" source="13" target="16" edge="1"><mxGeometry relative="1" as="geometry"><mxPoint x="382" y="330.0000000000001" as="sourcePoint"/></mxGeometry></mxCell><mxCell id="16" value="&lt;div style=&quot;color: rgb(8, 8, 8);&quot;&gt;&lt;pre style=&quot;font-family: &amp;quot;JetBrains Mono&amp;quot;, monospace;&quot;&gt;&lt;div style=&quot;&quot;&gt;&lt;pre style=&quot;font-family: &amp;quot;JetBrains Mono&amp;quot;, monospace;&quot;&gt;&lt;span style=&quot;color: rgb(0, 0, 0);&quot;&gt;ReceiveHistory&lt;/span&gt;&lt;/pre&gt;&lt;/div&gt;&lt;/pre&gt;&lt;/div&gt;" style="rounded=1;whiteSpace=wrap;html=1;absoluteArcSize=1;arcSize=14;strokeWidth=2;fillColor=#dae8fc;strokeColor=#6c8ebf;" parent="1" vertex="1"><mxGeometry x="297" y="370" width="190" height="50" as="geometry"/></mxCell><mxCell id="17" value="" style="edgeStyle=orthogonalEdgeStyle;rounded=0;orthogonalLoop=1;jettySize=auto;html=1;strokeColor=#000000;exitX=0.5;exitY=1;exitDx=0;exitDy=0;" parent="1" source="16" target="18" edge="1"><mxGeometry relative="1" as="geometry"><mxPoint x="382" y="420.0000000000001" as="sourcePoint"/></mxGeometry></mxCell><mxCell id="18" value="&lt;div style=&quot;color: rgb(8, 8, 8);&quot;&gt;&lt;pre style=&quot;font-family: &amp;quot;JetBrains Mono&amp;quot;, monospace;&quot;&gt;&lt;div style=&quot;&quot;&gt;&lt;pre style=&quot;font-family: &amp;quot;JetBrains Mono&amp;quot;, monospace;&quot;&gt;&lt;span style=&quot;color: rgb(0, 0, 0);&quot;&gt;DeserializeHistory&lt;/span&gt;&lt;/pre&gt;&lt;/div&gt;&lt;/pre&gt;&lt;/div&gt;" style="rounded=1;whiteSpace=wrap;html=1;absoluteArcSize=1;arcSize=14;strokeWidth=2;fillColor=#dae8fc;strokeColor=#6c8ebf;" parent="1" vertex="1"><mxGeometry x="297" y="460" width="190" height="50" as="geometry"/></mxCell><mxCell id="19" value="" style="edgeStyle=orthogonalEdgeStyle;rounded=0;orthogonalLoop=1;jettySize=auto;html=1;strokeColor=#000000;exitX=0.5;exitY=1;exitDx=0;exitDy=0;" parent="1" source="18" target="20" edge="1"><mxGeometry relative="1" as="geometry"><mxPoint x="382" y="510.0000000000001" as="sourcePoint"/></mxGeometry></mxCell><mxCell id="20" value="&lt;div style=&quot;color: rgb(8, 8, 8);&quot;&gt;&lt;pre style=&quot;font-family: &amp;quot;JetBrains Mono&amp;quot;, monospace;&quot;&gt;&lt;div style=&quot;&quot;&gt;&lt;pre style=&quot;font-family: &amp;quot;JetBrains Mono&amp;quot;, monospace;&quot;&gt;&lt;span style=&quot;color: rgb(0, 0, 0);&quot;&gt;GetProject&lt;/span&gt;&lt;/pre&gt;&lt;/div&gt;&lt;/pre&gt;&lt;/div&gt;" style="rounded=1;whiteSpace=wrap;html=1;absoluteArcSize=1;arcSize=14;strokeWidth=2;fillColor=#dae8fc;strokeColor=#6c8ebf;" parent="1" vertex="1"><mxGeometry x="297" y="550" width="190" height="50" as="geometry"/></mxCell><mxCell id="21" value="" style="edgeStyle=orthogonalEdgeStyle;rounded=0;orthogonalLoop=1;jettySize=auto;html=1;strokeColor=#000000;exitX=0.5;exitY=1;exitDx=0;exitDy=0;" parent="1" source="20" target="22" edge="1"><mxGeometry relative="1" as="geometry"><mxPoint x="382" y="600.0000000000001" as="sourcePoint"/></mxGeometry></mxCell><mxCell id="22" value="&lt;div style=&quot;color: rgb(8, 8, 8);&quot;&gt;&lt;pre style=&quot;font-family: &amp;quot;JetBrains Mono&amp;quot;, monospace;&quot;&gt;&lt;div style=&quot;&quot;&gt;&lt;pre style=&quot;font-family: &amp;quot;JetBrains Mono&amp;quot;, monospace;&quot;&gt;&lt;span style=&quot;color: rgb(0, 0, 0);&quot;&gt;GetJob&lt;/span&gt;&lt;/pre&gt;&lt;/div&gt;&lt;/pre&gt;&lt;/div&gt;" style="rounded=1;whiteSpace=wrap;html=1;absoluteArcSize=1;arcSize=14;strokeWidth=2;fillColor=#dae8fc;strokeColor=#6c8ebf;" parent="1" vertex="1"><mxGeometry x="297" y="640" width="190" height="50" as="geometry"/></mxCell><mxCell id="23" value="" style="edgeStyle=orthogonalEdgeStyle;rounded=0;orthogonalLoop=1;jettySize=auto;html=1;strokeColor=#000000;exitX=0.5;exitY=1;exitDx=0;exitDy=0;" parent="1" source="22" target="24" edge="1"><mxGeometry relative="1" as="geometry"><mxPoint x="382" y="690" as="sourcePoint"/></mxGeometry></mxCell><mxCell id="24" value="&lt;div style=&quot;color: rgb(8, 8, 8);&quot;&gt;&lt;pre style=&quot;font-family: &amp;quot;JetBrains Mono&amp;quot;, monospace;&quot;&gt;&lt;pre style=&quot;font-family: &amp;quot;JetBrains Mono&amp;quot;, monospace;&quot;&gt;&lt;pre style=&quot;font-family: &amp;quot;JetBrains Mono&amp;quot;, monospace;&quot;&gt;&lt;div style=&quot;&quot;&gt;&lt;pre style=&quot;font-family: &amp;quot;JetBrains Mono&amp;quot;, monospace;&quot;&gt;&lt;span style=&quot;color: rgb(0, 0, 0);&quot;&gt;AddHistory&lt;/span&gt;&lt;/pre&gt;&lt;/div&gt;&lt;/pre&gt;&lt;/pre&gt;&lt;/pre&gt;&lt;/div&gt;" style="rounded=1;whiteSpace=wrap;html=1;absoluteArcSize=1;arcSize=14;strokeWidth=2;fillColor=#dae8fc;strokeColor=#6c8ebf;" parent="1" vertex="1"><mxGeometry x="297" y="730" width="190" height="50" as="geometry"/></mxCell><mxCell id="25" value="" style="edgeStyle=orthogonalEdgeStyle;rounded=0;orthogonalLoop=1;jettySize=auto;html=1;strokeColor=#000000;exitX=0.5;exitY=1;exitDx=0;exitDy=0;" parent="1" source="24" target="26" edge="1"><mxGeometry relative="1" as="geometry"><mxPoint x="382" y="780" as="sourcePoint"/></mxGeometry></mxCell><mxCell id="26" value="&lt;div style=&quot;color: rgb(8, 8, 8);&quot;&gt;&lt;pre style=&quot;font-family: &amp;quot;JetBrains Mono&amp;quot;, monospace;&quot;&gt;&lt;pre style=&quot;font-family: &amp;quot;JetBrains Mono&amp;quot;, monospace;&quot;&gt;&lt;div style=&quot;&quot;&gt;&lt;pre style=&quot;font-family: &amp;quot;JetBrains Mono&amp;quot;, monospace;&quot;&gt;&lt;span style=&quot;color: rgb(0, 0, 0);&quot;&gt;SaveJob&lt;/span&gt;&lt;/pre&gt;&lt;/div&gt;&lt;/pre&gt;&lt;/pre&gt;&lt;/div&gt;" style="rounded=1;whiteSpace=wrap;html=1;absoluteArcSize=1;arcSize=14;strokeWidth=2;fillColor=#dae8fc;strokeColor=#6c8ebf;" parent="1" vertex="1"><mxGeometry x="297" y="820" width="190" height="50" as="geometry"/></mxCell><mxCell id="28" value="" style="edgeStyle=orthogonalEdgeStyle;rounded=0;orthogonalLoop=1;jettySize=auto;html=1;strokeColor=#000000;exitX=0.5;exitY=1;exitDx=0;exitDy=0;" parent="1" source="26" edge="1"><mxGeometry relative="1" as="geometry"><mxPoint x="382" y="870" as="sourcePoint"/><mxPoint x="392" y="910" as="targetPoint"/></mxGeometry></mxCell><mxCell id="58" value="" style="edgeStyle=orthogonalEdgeStyle;rounded=0;orthogonalLoop=1;jettySize=auto;html=1;strokeColor=#000000;endArrow=classic;endFill=1;dashed=1;" parent="1" source="35" target="57" edge="1"><mxGeometry relative="1" as="geometry"/></mxCell><mxCell id="35" value="&lt;div style=&quot;color: rgb(8, 8, 8);&quot;&gt;&lt;pre style=&quot;font-family: &amp;quot;JetBrains Mono&amp;quot;, monospace;&quot;&gt;&lt;pre style=&quot;font-family: &amp;quot;JetBrains Mono&amp;quot;, monospace;&quot;&gt;&lt;pre style=&quot;font-family: &amp;quot;JetBrains Mono&amp;quot;, monospace;&quot;&gt;&lt;pre style=&quot;font-family: &amp;quot;JetBrains Mono&amp;quot;, monospace;&quot;&gt;&lt;div style=&quot;&quot;&gt;&lt;pre style=&quot;font-family: &amp;quot;JetBrains Mono&amp;quot;, monospace;&quot;&gt;&lt;span style=&quot;color: rgb(0, 0, 0);&quot;&gt;SendHistoryInterface&lt;/span&gt;&lt;/pre&gt;&lt;/div&gt;&lt;/pre&gt;&lt;/pre&gt;&lt;/pre&gt;&lt;/pre&gt;&lt;/div&gt;" style="rounded=1;whiteSpace=wrap;html=1;absoluteArcSize=1;arcSize=14;strokeWidth=2;fontStyle=2;fillColor=#dae8fc;strokeColor=#6c8ebf;" parent="1" vertex="1"><mxGeometry x="297" y="910" width="190" height="50" as="geometry"/></mxCell><mxCell id="36" value="" style="edgeStyle=orthogonalEdgeStyle;rounded=0;orthogonalLoop=1;jettySize=auto;html=1;strokeColor=#000000;exitX=0.5;exitY=1;exitDx=0;exitDy=0;" parent="1" source="35" target="37" edge="1"><mxGeometry relative="1" as="geometry"><mxPoint x="382" y="960" as="sourcePoint"/></mxGeometry></mxCell><mxCell id="39" value="" style="edgeStyle=orthogonalEdgeStyle;rounded=0;orthogonalLoop=1;jettySize=auto;html=1;strokeColor=#000000;endArrow=classic;endFill=1;" parent="1" source="37" target="38" edge="1"><mxGeometry relative="1" as="geometry"/></mxCell><mxCell id="37" value="&lt;div style=&quot;color: rgb(8, 8, 8);&quot;&gt;&lt;pre style=&quot;font-family: &amp;quot;JetBrains Mono&amp;quot;, monospace;&quot;&gt;&lt;pre style=&quot;font-family: &amp;quot;JetBrains Mono&amp;quot;, monospace;&quot;&gt;&lt;pre style=&quot;font-family: &amp;quot;JetBrains Mono&amp;quot;, monospace;&quot;&gt;&lt;div style=&quot;&quot;&gt;&lt;pre style=&quot;font-family: &amp;quot;JetBrains Mono&amp;quot;, monospace;&quot;&gt;&lt;span style=&quot;color: rgb(0, 0, 0);&quot;&gt;UnsetTimeLimit&lt;/span&gt;&lt;/pre&gt;&lt;/div&gt;&lt;/pre&gt;&lt;/pre&gt;&lt;/pre&gt;&lt;/div&gt;" style="rounded=1;whiteSpace=wrap;html=1;absoluteArcSize=1;arcSize=14;strokeWidth=2;fillColor=#dae8fc;strokeColor=#6c8ebf;" parent="1" vertex="1"><mxGeometry x="297" y="1000" width="190" height="50" as="geometry"/></mxCell><mxCell id="38" value="" style="ellipse;html=1;shape=endState;fillColor=#000000;strokeColor=#000000;" parent="1" vertex="1"><mxGeometry x="377" y="1079" width="30" height="30" as="geometry"/></mxCell><mxCell id="40" value="5" style="text;html=1;strokeColor=none;fillColor=none;align=center;verticalAlign=middle;whiteSpace=wrap;rounded=0;fontStyle=2" parent="1" vertex="1"><mxGeometry x="467" y="220" width="20" height="20" as="geometry"/></mxCell><mxCell id="41" value="6" style="text;html=1;strokeColor=none;fillColor=none;align=center;verticalAlign=middle;whiteSpace=wrap;rounded=0;fontStyle=2" parent="1" vertex="1"><mxGeometry x="467" y="310" width="20" height="20" as="geometry"/></mxCell><mxCell id="42" value="10" style="text;html=1;strokeColor=none;fillColor=none;align=center;verticalAlign=middle;whiteSpace=wrap;rounded=0;fontStyle=2" parent="1" vertex="1"><mxGeometry x="467" y="400" width="20" height="20" as="geometry"/></mxCell><mxCell id="43" value="20" style="text;html=1;strokeColor=none;fillColor=none;align=center;verticalAlign=middle;whiteSpace=wrap;rounded=0;fontStyle=2" parent="1" vertex="1"><mxGeometry x="467" y="490" width="20" height="20" as="geometry"/></mxCell><mxCell id="44" value="30" style="text;html=1;strokeColor=none;fillColor=none;align=center;verticalAlign=middle;whiteSpace=wrap;rounded=0;fontStyle=2" parent="1" vertex="1"><mxGeometry x="467" y="580" width="20" height="20" as="geometry"/></mxCell><mxCell id="45" value="40" style="text;html=1;strokeColor=none;fillColor=none;align=center;verticalAlign=middle;whiteSpace=wrap;rounded=0;fontStyle=2" parent="1" vertex="1"><mxGeometry x="467" y="670" width="20" height="20" as="geometry"/></mxCell><mxCell id="46" value="50" style="text;html=1;strokeColor=none;fillColor=none;align=center;verticalAlign=middle;whiteSpace=wrap;rounded=0;fontStyle=2" parent="1" vertex="1"><mxGeometry x="467" y="760" width="20" height="20" as="geometry"/></mxCell><mxCell id="47" value="60" style="text;html=1;strokeColor=none;fillColor=none;align=center;verticalAlign=middle;whiteSpace=wrap;rounded=0;fontStyle=2" parent="1" vertex="1"><mxGeometry x="467" y="850" width="20" height="20" as="geometry"/></mxCell><mxCell id="48" value="80" style="text;html=1;strokeColor=none;fillColor=none;align=center;verticalAlign=middle;whiteSpace=wrap;rounded=0;fontStyle=2" parent="1" vertex="1"><mxGeometry x="467" y="940" width="20" height="20" as="geometry"/></mxCell><mxCell id="49" value="90" style="text;html=1;strokeColor=none;fillColor=none;align=center;verticalAlign=middle;whiteSpace=wrap;rounded=0;fontStyle=2" parent="1" vertex="1"><mxGeometry x="467" y="1030" width="20" height="20" as="geometry"/></mxCell><mxCell id="52" value="" style="edgeStyle=orthogonalEdgeStyle;rounded=0;orthogonalLoop=1;jettySize=auto;html=1;strokeColor=#000000;endArrow=classic;endFill=1;" parent="1" source="50" target="51" edge="1"><mxGeometry relative="1" as="geometry"/></mxCell><mxCell id="50" value="&lt;div style=&quot;color: rgb(8, 8, 8);&quot;&gt;&lt;pre style=&quot;font-family: &amp;quot;JetBrains Mono&amp;quot;, monospace;&quot;&gt;&lt;pre style=&quot;font-family: &amp;quot;JetBrains Mono&amp;quot;, monospace;&quot;&gt;&lt;pre style=&quot;font-family: &amp;quot;JetBrains Mono&amp;quot;, monospace;&quot;&gt;&lt;div style=&quot;&quot;&gt;&lt;pre style=&quot;font-family: &amp;quot;JetBrains Mono&amp;quot;, monospace;&quot;&gt;&lt;span style=&quot;color: rgb(0, 0, 0);&quot;&gt;UnsetTimeLimit&lt;/span&gt;&lt;/pre&gt;&lt;/div&gt;&lt;/pre&gt;&lt;/pre&gt;&lt;/pre&gt;&lt;/div&gt;" style="rounded=1;whiteSpace=wrap;html=1;absoluteArcSize=1;arcSize=14;strokeWidth=2;fillColor=#f8cecc;strokeColor=#b85450;" parent="1" vertex="1"><mxGeometry x="50" y="910" width="190" height="50" as="geometry"/></mxCell><mxCell id="51" value="&lt;div style=&quot;color: rgb(8, 8, 8);&quot;&gt;&lt;pre style=&quot;font-family: &amp;quot;JetBrains Mono&amp;quot;, monospace;&quot;&gt;&lt;pre style=&quot;font-family: &amp;quot;JetBrains Mono&amp;quot;, monospace;&quot;&gt;&lt;pre style=&quot;font-family: &amp;quot;JetBrains Mono&amp;quot;, monospace;&quot;&gt;&lt;pre style=&quot;font-family: &amp;quot;JetBrains Mono&amp;quot;, monospace;&quot;&gt;&lt;div style=&quot;&quot;&gt;&lt;pre style=&quot;font-family: &amp;quot;JetBrains Mono&amp;quot;, monospace;&quot;&gt;&lt;span style=&quot;color: rgb(0, 0, 0);&quot;&gt;DispatchError&lt;/span&gt;&lt;/pre&gt;&lt;/div&gt;&lt;/pre&gt;&lt;/pre&gt;&lt;/pre&gt;&lt;/pre&gt;&lt;/div&gt;" style="rounded=1;whiteSpace=wrap;html=1;absoluteArcSize=1;arcSize=14;strokeWidth=2;fillColor=#f8cecc;strokeColor=#b85450;" parent="1" vertex="1"><mxGeometry x="50" y="1000" width="190" height="50" as="geometry"/></mxCell><mxCell id="53" value="" style="edgeStyle=orthogonalEdgeStyle;rounded=1;orthogonalLoop=1;jettySize=auto;html=1;strokeColor=#000000;endArrow=classic;endFill=1;entryX=0;entryY=0.5;entryDx=0;entryDy=0;exitX=0.5;exitY=1;exitDx=0;exitDy=0;" parent="1" source="51" target="38" edge="1"><mxGeometry relative="1" as="geometry"><mxPoint x="155" y="970" as="sourcePoint"/><mxPoint x="155" y="1010" as="targetPoint"/></mxGeometry></mxCell><mxCell id="56" value="On Error" style="swimlane;whiteSpace=wrap;html=1;strokeColor=#b85450;startSize=23;fillColor=#f8cecc;" parent="1" vertex="1"><mxGeometry x="30" y="870" width="230" height="200" as="geometry"/></mxCell><mxCell id="60" value="&lt;div style=&quot;background-color:#ffffff;color:#080808&quot;&gt;&lt;pre style=&quot;font-family:'JetBrains Mono',monospace;font-size:15,0pt;&quot;&gt;&lt;pre style=&quot;font-family:'JetBrains Mono',monospace;font-size:15,0pt;&quot;&gt;&lt;span style=&quot;color: rgba(0, 0, 0, 0); font-family: monospace; font-size: 0px; text-align: start; background-color: rgb(248, 249, 250);&quot;&gt;%3CmxGraphModel%3E%3Croot%3E%3CmxCell%20id%3D%220%22%2F%3E%3CmxCell%20id%3D%221%22%20parent%3D%220%22%2F%3E%3CmxCell%20id%3D%222%22%20value%3D%22%26lt%3Bdiv%20style%3D%26quot%3Bbackground-color%3A%23ffffff%3Bcolor%3A%23080808%26quot%3B%26gt%3B%26lt%3Bpre%20style%3D%26quot%3Bfont-family%3A'JetBrains%20Mono'%2Cmonospace%3Bfont-size%3A15%2C0pt%3B%26quot%3B%26gt%3B%26lt%3Bdiv%26gt%3B%26lt%3Bpre%20style%3D%26quot%3Bfont-family%3A'JetBrains%20Mono'%2Cmonospace%3Bfont-size%3A15%2C0pt%3B%26quot%3B%26gt%3B%26lt%3Bspan%20style%3D%26quot%3Bcolor%3A%23000000%3B%26quot%3B%26gt%3BGetJob%26lt%3B%2Fspan%26gt%3B%26lt%3B%2Fpre%26gt%3B%26lt%3B%2Fdiv%26gt%3B%26lt%3B%2Fpre%26gt%3B%26lt%3B%2Fdiv%26gt%3B%22%20style%3D%22rounded%3D1%3BwhiteSpace%3Dwrap%3Bhtml%3D1%3BabsoluteArcSize%3D1%3BarcSize%3D14%3BstrokeWidth%3D2%3B%22%20vertex%3D%221%22%20parent%3D%221%22%3E%3CmxGeometry%20x%3D%22340%22%20y%3D%22640%22%20width%3D%22190%22%20height%3D%2250%22%20as%3D%22geometry%22%2F%3E%3C%2FmxCell%3E%3C%2Froot%3E%3C%2FmxGraphModel%3E&lt;/span&gt;&lt;br&gt;&lt;/pre&gt;&lt;/pre&gt;&lt;/div&gt;" style="rounded=1;whiteSpace=wrap;html=1;absoluteArcSize=1;arcSize=14;strokeWidth=2;" parent="1" vertex="1"><mxGeometry x="40" y="535" width="190" height="50" as="geometry"/></mxCell><mxCell id="61" value="&lt;div style=&quot;background-color:#ffffff;color:#080808&quot;&gt;&lt;pre style=&quot;font-family:'JetBrains Mono',monospace;font-size:15,0pt;&quot;&gt;&lt;pre style=&quot;font-family:'JetBrains Mono',monospace;font-size:15,0pt;&quot;&gt;&lt;div&gt;&lt;pre style=&quot;font-family:'JetBrains Mono',monospace;font-size:15,0pt;&quot;&gt;&lt;span style=&quot;color:#000000;&quot;&gt;AddHistoryStepsInterface&lt;/span&gt;&lt;/pre&gt;&lt;/div&gt;&lt;/pre&gt;&lt;/pre&gt;&lt;/div&gt;" style="rounded=1;whiteSpace=wrap;html=1;absoluteArcSize=1;arcSize=14;strokeWidth=2;" parent="1" vertex="1"><mxGeometry x="50" y="545" width="190" height="50" as="geometry"/></mxCell><mxCell id="62" value="" style="endArrow=classic;html=1;dashed=1;strokeColor=#000000;entryX=0.5;entryY=0;entryDx=0;entryDy=0;rounded=1;dashPattern=1 4;" parent="1" target="64" edge="1"><mxGeometry width="50" height="50" relative="1" as="geometry"><mxPoint x="390" y="160" as="sourcePoint"/><mxPoint x="960" y="510" as="targetPoint"/><Array as="points"><mxPoint x="145" y="160"/></Array></mxGeometry></mxCell><mxCell id="57" value="&lt;div style=&quot;color: rgb(8, 8, 8);&quot;&gt;&lt;pre style=&quot;font-family: &amp;quot;JetBrains Mono&amp;quot;, monospace;&quot;&gt;&lt;pre style=&quot;font-family: &amp;quot;JetBrains Mono&amp;quot;, monospace;&quot;&gt;&lt;pre style=&quot;font-family: &amp;quot;JetBrains Mono&amp;quot;, monospace;&quot;&gt;&lt;pre style=&quot;font-family: &amp;quot;JetBrains Mono&amp;quot;, monospace;&quot;&gt;&lt;div style=&quot;&quot;&gt;&lt;pre style=&quot;font-family: &amp;quot;JetBrains Mono&amp;quot;, monospace;&quot;&gt;&lt;span style=&quot;color: rgb(0, 0, 0);&quot;&gt;Laminas/../&lt;/span&gt;SendHistory&lt;/pre&gt;&lt;/div&gt;&lt;/pre&gt;&lt;/pre&gt;&lt;/pre&gt;&lt;/pre&gt;&lt;/div&gt;" style="rounded=1;whiteSpace=wrap;html=1;absoluteArcSize=1;arcSize=14;strokeWidth=2;strokeColor=#82b366;fillColor=#d5e8d4;" parent="1" vertex="1"><mxGeometry x="517" y="910" width="200" height="50" as="geometry"/></mxCell><mxCell id="64" value="To extends, add step in" style="swimlane;whiteSpace=wrap;html=1;strokeColor=#6c8ebf;startSize=23;fillColor=#dae8fc;" parent="1" vertex="1"><mxGeometry x="30" y="490" width="230" height="120" as="geometry"/></mxCell><mxCell id="66" value="&lt;div style=&quot;color: rgb(8, 8, 8);&quot;&gt;&lt;pre style=&quot;font-family: &amp;quot;JetBrains Mono&amp;quot;, monospace;&quot;&gt;&lt;span style=&quot;color: rgb(0, 0, 0);&quot;&gt;PingService&lt;/span&gt;&lt;/pre&gt;&lt;/div&gt;" style="shape=process;whiteSpace=wrap;html=1;backgroundOutline=1;fillColor=#ffe6cc;strokeColor=#d79b00;" parent="1" vertex="1"><mxGeometry x="748" y="193" width="190" height="45" as="geometry"/></mxCell><mxCell id="67" value="&lt;div style=&quot;color: rgb(8, 8, 8);&quot;&gt;&lt;pre style=&quot;font-family: &amp;quot;JetBrains Mono&amp;quot;, monospace;&quot;&gt;&lt;span style=&quot;color: rgb(0, 0, 0);&quot;&gt;TimeoutService&lt;/span&gt;&lt;/pre&gt;&lt;/div&gt;" style="shape=process;whiteSpace=wrap;html=1;backgroundOutline=1;fillColor=#ffe6cc;strokeColor=#d79b00;" parent="1" vertex="1"><mxGeometry x="748" y="283" width="190" height="45" as="geometry"/></mxCell><mxCell id="68" value="&lt;div style=&quot;color: rgb(8, 8, 8);&quot;&gt;&lt;pre style=&quot;font-family: &amp;quot;JetBrains Mono&amp;quot;, monospace;&quot;&gt;&lt;div style=&quot;&quot;&gt;&lt;pre style=&quot;font-family: &amp;quot;JetBrains Mono&amp;quot;, monospace;&quot;&gt;&lt;span style=&quot;color: rgb(0, 0, 0);&quot;&gt;Deserializer&lt;/span&gt;&lt;/pre&gt;&lt;/div&gt;&lt;/pre&gt;&lt;/div&gt;" style="shape=process;whiteSpace=wrap;html=1;backgroundOutline=1;fillColor=#ffe6cc;strokeColor=#d79b00;" parent="1" vertex="1"><mxGeometry x="748" y="463" width="190" height="45" as="geometry"/></mxCell><mxCell id="69" value="&lt;div style=&quot;color: rgb(8, 8, 8);&quot;&gt;&lt;pre style=&quot;font-family: &amp;quot;JetBrains Mono&amp;quot;, monospace;&quot;&gt;&lt;pre style=&quot;font-family: &amp;quot;JetBrains Mono&amp;quot;, monospace;&quot;&gt;&lt;div style=&quot;&quot;&gt;&lt;pre style=&quot;font-family: &amp;quot;JetBrains Mono&amp;quot;, monospace;&quot;&gt;&lt;span style=&quot;color: rgb(0, 0, 0);&quot;&gt;ProjectLoader&lt;/span&gt;&lt;/pre&gt;&lt;/div&gt;&lt;/pre&gt;&lt;/pre&gt;&lt;/div&gt;" style="shape=process;whiteSpace=wrap;html=1;backgroundOutline=1;fillColor=#ffe6cc;strokeColor=#d79b00;" parent="1" vertex="1"><mxGeometry x="748" y="553" width="190" height="45" as="geometry"/></mxCell><mxCell id="70" value="&lt;div style=&quot;color: rgb(8, 8, 8);&quot;&gt;&lt;pre style=&quot;font-family: &amp;quot;JetBrains Mono&amp;quot;, monospace;&quot;&gt;&lt;pre style=&quot;font-family: &amp;quot;JetBrains Mono&amp;quot;, monospace;&quot;&gt;&lt;pre style=&quot;font-family: &amp;quot;JetBrains Mono&amp;quot;, monospace;&quot;&gt;&lt;div style=&quot;&quot;&gt;&lt;pre style=&quot;font-family: &amp;quot;JetBrains Mono&amp;quot;, monospace;&quot;&gt;&lt;span style=&quot;color: rgb(0, 0, 0);&quot;&gt;JobLoader&lt;/span&gt;&lt;/pre&gt;&lt;/div&gt;&lt;/pre&gt;&lt;/pre&gt;&lt;/pre&gt;&lt;/div&gt;" style="shape=process;whiteSpace=wrap;html=1;backgroundOutline=1;fillColor=#ffe6cc;strokeColor=#d79b00;" parent="1" vertex="1"><mxGeometry x="748" y="643" width="190" height="45" as="geometry"/></mxCell><mxCell id="71" value="&lt;div style=&quot;color: rgb(8, 8, 8);&quot;&gt;&lt;pre style=&quot;font-family: &amp;quot;JetBrains Mono&amp;quot;, monospace;&quot;&gt;&lt;pre style=&quot;font-family: &amp;quot;JetBrains Mono&amp;quot;, monospace;&quot;&gt;&lt;pre style=&quot;font-family: &amp;quot;JetBrains Mono&amp;quot;, monospace;&quot;&gt;&lt;div style=&quot;&quot;&gt;&lt;pre style=&quot;font-family: &amp;quot;JetBrains Mono&amp;quot;, monospace;&quot;&gt;&lt;span style=&quot;color: rgb(0, 0, 0);&quot;&gt;Job::&lt;/span&gt;addFromHistory&lt;/pre&gt;&lt;/div&gt;&lt;/pre&gt;&lt;/pre&gt;&lt;/pre&gt;&lt;/div&gt;" style="shape=process;whiteSpace=wrap;html=1;backgroundOutline=1;fillColor=#ffe6cc;strokeColor=#d79b00;" parent="1" vertex="1"><mxGeometry x="748" y="733" width="190" height="45" as="geometry"/></mxCell><mxCell id="72" value="&lt;div style=&quot;color: rgb(8, 8, 8);&quot;&gt;&lt;pre style=&quot;font-family: &amp;quot;JetBrains Mono&amp;quot;, monospace;&quot;&gt;&lt;pre style=&quot;font-family: &amp;quot;JetBrains Mono&amp;quot;, monospace;&quot;&gt;&lt;pre style=&quot;font-family: &amp;quot;JetBrains Mono&amp;quot;, monospace;&quot;&gt;&lt;pre style=&quot;font-family: &amp;quot;JetBrains Mono&amp;quot;, monospace;&quot;&gt;&lt;div style=&quot;&quot;&gt;&lt;pre style=&quot;font-family: &amp;quot;JetBrains Mono&amp;quot;, monospace;&quot;&gt;&lt;span style=&quot;color: rgb(0, 0, 0);&quot;&gt;JobWriter&lt;/span&gt;&lt;/pre&gt;&lt;/div&gt;&lt;/pre&gt;&lt;/pre&gt;&lt;/pre&gt;&lt;/pre&gt;&lt;/div&gt;" style="shape=process;whiteSpace=wrap;html=1;backgroundOutline=1;fillColor=#ffe6cc;strokeColor=#d79b00;" parent="1" vertex="1"><mxGeometry x="748" y="823" width="190" height="45" as="geometry"/></mxCell><mxCell id="73" value="&lt;div style=&quot;color: rgb(8, 8, 8);&quot;&gt;&lt;pre style=&quot;font-family: &amp;quot;JetBrains Mono&amp;quot;, monospace;&quot;&gt;&lt;span style=&quot;color: rgb(0, 0, 0);&quot;&gt;TimeoutService&lt;/span&gt;&lt;/pre&gt;&lt;/div&gt;" style="shape=process;whiteSpace=wrap;html=1;backgroundOutline=1;fillColor=#ffe6cc;strokeColor=#d79b00;" parent="1" vertex="1"><mxGeometry x="748" y="1003" width="190" height="45" as="geometry"/></mxCell><mxCell id="82" value="" style="endArrow=classic;html=1;rounded=0;dashed=1;exitX=1;exitY=0.5;exitDx=0;exitDy=0;entryX=0;entryY=0.5;entryDx=0;entryDy=0;strokeColor=#666666;fillColor=#f5f5f5;" parent="1" source="10" target="66" edge="1"><mxGeometry width="50" height="50" relative="1" as="geometry"><mxPoint x="1007" y="440" as="sourcePoint"/><mxPoint x="1097" y="360" as="targetPoint"/></mxGeometry></mxCell><mxCell id="83" value="" style="endArrow=classic;html=1;rounded=0;dashed=1;exitX=1;exitY=0.5;exitDx=0;exitDy=0;strokeColor=#666666;fillColor=#f5f5f5;entryX=0;entryY=0.5;entryDx=0;entryDy=0;" parent="1" target="67" edge="1"><mxGeometry width="50" height="50" relative="1" as="geometry"><mxPoint x="487" y="304.6600000000001" as="sourcePoint"/><mxPoint x="750" y="305" as="targetPoint"/></mxGeometry></mxCell><mxCell id="84" value="" style="endArrow=classic;html=1;rounded=0;dashed=1;exitX=1;exitY=0.5;exitDx=0;exitDy=0;strokeColor=#666666;fillColor=#f5f5f5;entryX=0;entryY=0.5;entryDx=0;entryDy=0;" parent="1" target="68" edge="1"><mxGeometry width="50" height="50" relative="1" as="geometry"><mxPoint x="487" y="485.1600000000001" as="sourcePoint"/><mxPoint x="750" y="486" as="targetPoint"/></mxGeometry></mxCell><mxCell id="85" value="" style="endArrow=classic;html=1;rounded=0;dashed=1;exitX=1;exitY=0.5;exitDx=0;exitDy=0;strokeColor=#666666;fillColor=#f5f5f5;" parent="1" target="69" edge="1"><mxGeometry width="50" height="50" relative="1" as="geometry"><mxPoint x="487" y="575.1600000000001" as="sourcePoint"/><mxPoint x="740" y="576" as="targetPoint"/></mxGeometry></mxCell><mxCell id="86" value="" style="endArrow=classic;html=1;rounded=0;dashed=1;exitX=1;exitY=0.5;exitDx=0;exitDy=0;entryX=-0.008;entryY=0.478;entryDx=0;entryDy=0;strokeColor=#666666;fillColor=#f5f5f5;entryPerimeter=0;" parent="1" target="70" edge="1"><mxGeometry width="50" height="50" relative="1" as="geometry"><mxPoint x="487" y="664.6600000000001" as="sourcePoint"/><mxPoint x="797" y="665.1600000000001" as="targetPoint"/></mxGeometry></mxCell><mxCell id="87" value="" style="endArrow=classic;html=1;rounded=0;dashed=1;exitX=1;exitY=0.5;exitDx=0;exitDy=0;entryX=-0.008;entryY=0.501;entryDx=0;entryDy=0;strokeColor=#666666;fillColor=#f5f5f5;entryPerimeter=0;" parent="1" target="71" edge="1"><mxGeometry width="50" height="50" relative="1" as="geometry"><mxPoint x="487" y="755.1600000000001" as="sourcePoint"/><mxPoint x="797" y="755.6600000000001" as="targetPoint"/></mxGeometry></mxCell><mxCell id="88" value="" style="endArrow=classic;html=1;rounded=0;dashed=1;exitX=1;exitY=0.5;exitDx=0;exitDy=0;entryX=0;entryY=0.5;entryDx=0;entryDy=0;strokeColor=#666666;fillColor=#f5f5f5;" parent="1" target="72" edge="1"><mxGeometry width="50" height="50" relative="1" as="geometry"><mxPoint x="487" y="844.6600000000001" as="sourcePoint"/><mxPoint x="797" y="845.16" as="targetPoint"/></mxGeometry></mxCell><mxCell id="89" value="" style="endArrow=classic;html=1;rounded=0;dashed=1;exitX=1;exitY=0.5;exitDx=0;exitDy=0;strokeColor=#666666;fillColor=#f5f5f5;" parent="1" edge="1"><mxGeometry width="50" height="50" relative="1" as="geometry"><mxPoint x="487" y="1024.66" as="sourcePoint"/><mxPoint x="746" y="1024" as="targetPoint"/></mxGeometry></mxCell><mxCell id="90" value="&lt;div style=&quot;color: rgb(8, 8, 8);&quot;&gt;&lt;pre style=&quot;font-family: &amp;quot;JetBrains Mono&amp;quot;, monospace;&quot;&gt;&lt;pre style=&quot;font-family: &amp;quot;JetBrains Mono&amp;quot;, monospace;&quot;&gt;&lt;pre style=&quot;font-family: &amp;quot;JetBrains Mono&amp;quot;, monospace;&quot;&gt;&lt;pre style=&quot;font-family: &amp;quot;JetBrains Mono&amp;quot;, monospace;&quot;&gt;&lt;div style=&quot;&quot;&gt;&lt;pre style=&quot;font-family: &amp;quot;JetBrains Mono&amp;quot;, monospace;&quot;&gt;&lt;span style=&quot;color: rgb(0, 0, 0);&quot;&gt;Laminas Response&lt;/span&gt;&lt;/pre&gt;&lt;/div&gt;&lt;/pre&gt;&lt;/pre&gt;&lt;/pre&gt;&lt;/pre&gt;&lt;/div&gt;" style="shape=process;whiteSpace=wrap;html=1;backgroundOutline=1;fillColor=#ffe6cc;strokeColor=#d79b00;" parent="1" vertex="1"><mxGeometry x="748" y="912.5" width="190" height="45" as="geometry"/></mxCell><mxCell id="93" value="" style="endArrow=classic;html=1;rounded=0;dashed=1;exitX=1;exitY=0.5;exitDx=0;exitDy=0;entryX=0;entryY=0.5;entryDx=0;entryDy=0;strokeColor=#666666;fillColor=#f5f5f5;" parent="1" source="57" target="90" edge="1"><mxGeometry width="50" height="50" relative="1" as="geometry"><mxPoint x="477" y="854.6599999999999" as="sourcePoint"/><mxPoint x="787" y="855.1599999999999" as="targetPoint"/></mxGeometry></mxCell></root></mxGraphModel></diagram></mxfile>